<svg width="293" height="28" viewBox="0 0 293 28" fill="none" xmlns="http://www.w3.org/2000/svg">
<path d="M1.42969 22V6H7.74219C8.95052 6 9.98177 6.21615 10.8359 6.64844C11.6953 7.07552 12.349 7.68229 12.7969 8.46875C13.25 9.25 13.4766 10.1693 13.4766 11.2266C13.4766 12.2891 13.2474 13.2031 12.7891 13.9687C12.3307 14.7292 11.6667 15.3125 10.7969 15.7187C9.93229 16.125 8.88542 16.3281 7.65625 16.3281H3.42969V13.6094H7.10938C7.75521 13.6094 8.29167 13.5208 8.71875 13.3438C9.14583 13.1667 9.46354 12.901 9.67188 12.5469C9.88542 12.1927 9.99219 11.7526 9.99219 11.2266C9.99219 10.6953 9.88542 10.2474 9.67188 9.88281C9.46354 9.51823 9.14323 9.24219 8.71094 9.05469C8.28385 8.86198 7.74479 8.76562 7.09375 8.76562H4.8125V22H1.42969ZM10.0703 14.7188L14.0469 22H10.3125L6.42188 14.7188H10.0703ZM15.8672 22V6H26.6484V8.78906H19.25V12.6016H26.0938V15.3906H19.25V19.2109H26.6797V22H15.8672ZM43.4551 11.6016H40.0332C39.9707 11.1589 39.8431 10.7656 39.6504 10.4219C39.4577 10.0729 39.2103 9.77604 38.9082 9.53125C38.6061 9.28646 38.2572 9.09896 37.8613 8.96875C37.4707 8.83854 37.0462 8.77344 36.5879 8.77344C35.7598 8.77344 35.0384 8.97917 34.4238 9.39062C33.8092 9.79687 33.3327 10.3906 32.9941 11.1719C32.6556 11.9479 32.4863 12.8906 32.4863 14C32.4863 15.1406 32.6556 16.099 32.9941 16.875C33.3379 17.651 33.8171 18.237 34.4316 18.6328C35.0462 19.0286 35.7572 19.2266 36.5645 19.2266C37.0176 19.2266 37.4368 19.1667 37.8223 19.0469C38.2129 18.9271 38.5592 18.7526 38.8613 18.5234C39.1634 18.2891 39.4134 18.0052 39.6113 17.6719C39.8145 17.3385 39.9551 16.9583 40.0332 16.5312L43.4551 16.5469C43.3665 17.2812 43.1452 17.9896 42.791 18.6719C42.4421 19.349 41.9707 19.9557 41.377 20.4922C40.7884 21.0234 40.0853 21.4453 39.2676 21.7578C38.4551 22.0651 37.5358 22.2187 36.5098 22.2187C35.0827 22.2187 33.8066 21.8958 32.6816 21.25C31.5618 20.6042 30.6764 19.6693 30.0254 18.4453C29.3796 17.2214 29.0566 15.7396 29.0566 14C29.0566 12.2552 29.3848 10.7708 30.041 9.54688C30.6973 8.32292 31.5879 7.39062 32.7129 6.75C33.8379 6.10417 35.1035 5.78125 36.5098 5.78125C37.4368 5.78125 38.2962 5.91146 39.0879 6.17187C39.8848 6.43229 40.5905 6.8125 41.2051 7.3125C41.8197 7.80729 42.3197 8.41406 42.7051 9.13281C43.0957 9.85156 43.3457 10.6745 43.4551 11.6016ZM44.9434 6H48.7324L52.3809 12.8906H52.5371L56.1855 6H59.9746L54.1387 16.3437V22H50.7793V16.3437L44.9434 6ZM74.9727 11.6016H71.5508C71.4883 11.1589 71.3607 10.7656 71.168 10.4219C70.9753 10.0729 70.7279 9.77604 70.4258 9.53125C70.1237 9.28646 69.7747 9.09896 69.3789 8.96875C68.9883 8.83854 68.5638 8.77344 68.1055 8.77344C67.2773 8.77344 66.556 8.97917 65.9414 9.39062C65.3268 9.79687 64.8503 10.3906 64.5117 11.1719C64.1732 11.9479 64.0039 12.8906 64.0039 14C64.0039 15.1406 64.1732 16.099 64.5117 16.875C64.8555 17.651 65.3346 18.237 65.9492 18.6328C66.5638 19.0286 67.2747 19.2266 68.082 19.2266C68.5352 19.2266 68.9544 19.1667 69.3398 19.0469C69.7305 18.9271 70.0768 18.7526 70.3789 18.5234C70.681 18.2891 70.931 18.0052 71.1289 17.6719C71.332 17.3385 71.4727 16.9583 71.5508 16.5312L74.9727 16.5469C74.8841 17.2812 74.6628 17.9896 74.3086 18.6719C73.9596 19.349 73.4883 19.9557 72.8945 20.4922C72.306 21.0234 71.6029 21.4453 70.7852 21.7578C69.9727 22.0651 69.0534 22.2187 68.0273 22.2187C66.6003 22.2187 65.3242 21.8958 64.1992 21.25C63.0794 20.6042 62.194 19.6693 61.543 18.4453C60.8971 17.2214 60.5742 15.7396 60.5742 14C60.5742 12.2552 60.9023 10.7708 61.5586 9.54688C62.2148 8.32292 63.1055 7.39062 64.2305 6.75C65.3555 6.10417 66.6211 5.78125 68.0273 5.78125C68.9544 5.78125 69.8138 5.91146 70.6055 6.17187C71.4023 6.43229 72.1081 6.8125 72.7227 7.3125C73.3372 7.80729 73.8372 8.41406 74.2227 9.13281C74.6133 9.85156 74.8633 10.6745 74.9727 11.6016ZM77.3984 22V6H80.7813V19.2109H87.6406V22H77.3984ZM89.8809 22V6H100.662V8.78906H93.2637V12.6016H100.107V15.3906H93.2637V19.2109H100.693V22H89.8809Z" fill="white"/>
<path d="M116.595 22V6H122.907C124.116 6 125.147 6.21615 126.001 6.64844C126.86 7.07552 127.514 7.68229 127.962 8.46875C128.415 9.25 128.642 10.1693 128.642 11.2266C128.642 12.2891 128.412 13.2031 127.954 13.9687C127.496 14.7292 126.832 15.3125 125.962 15.7187C125.097 16.125 124.05 16.3281 122.821 16.3281H118.595V13.6094H122.274C122.92 13.6094 123.457 13.5208 123.884 13.3438C124.311 13.1667 124.629 12.901 124.837 12.5469C125.05 12.1927 125.157 11.7526 125.157 11.2266C125.157 10.6953 125.05 10.2474 124.837 9.88281C124.629 9.51823 124.308 9.24219 123.876 9.05469C123.449 8.86198 122.91 8.76562 122.259 8.76562H119.978V22H116.595ZM125.235 14.7188L129.212 22H125.478L121.587 14.7188H125.235ZM131.032 22V6H141.813V8.78906H134.415V12.6016H141.259V15.3906H134.415V19.2109H141.845V22H131.032ZM144.503 22V6H155.097V8.78906H147.886V12.6016H154.394V15.3906H147.886V22H144.503ZM160.755 6V22H157.372V6H160.755ZM176.921 6V22H173.999L167.038 11.9297H166.921V22H163.538V6H166.507L173.413 16.0625H173.554V6H176.921ZM179.716 22V6H190.497V8.78906H183.099V12.6016H189.942V15.3906H183.099V19.2109H190.528V22H179.716Z" fill="white"/>
<path d="M211.395 23V7H217.707C218.916 7 219.947 7.21615 220.801 7.64844C221.66 8.07552 222.314 8.68229 222.762 9.46875C223.215 10.25 223.442 11.1693 223.442 12.2266C223.442 13.2891 223.213 14.2031 222.754 14.9687C222.296 15.7292 221.632 16.3125 220.762 16.7187C219.897 17.125 218.851 17.3281 217.621 17.3281H213.395V14.6094H217.075C217.72 14.6094 218.257 14.5208 218.684 14.3438C219.111 14.1667 219.429 13.901 219.637 13.5469C219.851 13.1927 219.957 12.7526 219.957 12.2266C219.957 11.6953 219.851 11.2474 219.637 10.8828C219.429 10.5182 219.108 10.2422 218.676 10.0547C218.249 9.86198 217.71 9.76562 217.059 9.76562H214.778V23H211.395ZM220.035 15.7188L224.012 23H220.278L216.387 15.7188H220.035ZM226.492 23V7H237.274V9.78906H229.875V13.6016H236.719V16.3906H229.875V20.2109H237.305V23H226.492ZM254.006 7V23H251.084L244.123 12.9297H244.006V23H240.623V7H243.592L250.498 17.0625H250.639V7H254.006ZM257.461 23V7H268.242V9.78906H260.844V13.6016H267.687V16.3906H260.844V20.2109H268.273V23H257.461ZM275.193 23L270.615 7H274.31L276.959 18.1172H277.091L280.013 7H283.177L286.091 18.1406H286.232L288.881 7H292.576L287.998 23H284.701L281.654 12.5391H281.529L278.49 23H275.193Z" fill="#3E3DE7"/>
</svg>
