<svg width="313" height="85" viewBox="0 0 313 85" fill="none" xmlns="http://www.w3.org/2000/svg">
<path d="M60.3526 58V25.2727H69.0031V31.0469H69.3867C70.0685 29.1293 71.2048 27.6165 72.7958 26.5085C74.3867 25.4006 76.2901 24.8466 78.506 24.8466C80.7503 24.8466 82.6608 25.4077 84.2375 26.5298C85.8142 27.6378 86.8654 29.1435 87.3909 31.0469H87.7318C88.3995 29.1719 89.6068 27.6733 91.354 26.5511C93.1154 25.4148 95.1963 24.8466 97.5969 24.8466C100.651 24.8466 103.13 25.8196 105.033 27.7656C106.951 29.6974 107.909 32.4389 107.909 35.9901V58H98.854V37.7798C98.854 35.9616 98.371 34.598 97.4051 33.6889C96.4392 32.7798 95.2318 32.3253 93.783 32.3253C92.1352 32.3253 90.8497 32.8509 89.9264 33.902C89.0031 34.9389 88.5415 36.3097 88.5415 38.0142V58H79.7418V37.5881C79.7418 35.983 79.2801 34.7045 78.3568 33.7528C77.4477 32.8011 76.2475 32.3253 74.756 32.3253C73.7475 32.3253 72.8384 32.581 72.0287 33.0923C71.2333 33.5895 70.6012 34.2926 70.1324 35.2017C69.6637 36.0966 69.4293 37.1477 69.4293 38.3551V58H60.3526ZM124.412 58.6179C122.323 58.6179 120.463 58.2557 118.829 57.5312C117.196 56.7926 115.903 55.706 114.951 54.2713C114.014 52.8224 113.545 51.0185 113.545 48.8594C113.545 47.0412 113.879 45.5142 114.546 44.2784C115.214 43.0426 116.123 42.0483 117.274 41.2955C118.424 40.5426 119.731 39.9744 121.194 39.5909C122.671 39.2074 124.22 38.9375 125.839 38.7812C127.742 38.5824 129.277 38.3977 130.441 38.2273C131.606 38.0426 132.451 37.7727 132.977 37.4176C133.502 37.0625 133.765 36.5369 133.765 35.8409V35.7131C133.765 34.3636 133.339 33.3196 132.487 32.581C131.649 31.8423 130.456 31.473 128.907 31.473C127.274 31.473 125.974 31.8352 125.008 32.5597C124.042 33.2699 123.403 34.1648 123.091 35.2443L114.696 34.5625C115.122 32.5739 115.96 30.8551 117.21 29.4062C118.46 27.9432 120.072 26.821 122.046 26.0398C124.035 25.2443 126.336 24.8466 128.95 24.8466C130.768 24.8466 132.508 25.0597 134.17 25.4858C135.846 25.9119 137.331 26.5724 138.623 27.4673C139.93 28.3622 140.96 29.5128 141.713 30.919C142.466 32.3111 142.842 33.9801 142.842 35.9261V58H134.234V53.4616H133.978C133.453 54.4844 132.75 55.3864 131.869 56.1676C130.988 56.9347 129.93 57.5384 128.694 57.9787C127.458 58.4048 126.031 58.6179 124.412 58.6179ZM127.011 52.3537C128.346 52.3537 129.525 52.0909 130.548 51.5653C131.571 51.0256 132.373 50.3011 132.956 49.392C133.538 48.483 133.829 47.4531 133.829 46.3026V42.8295C133.545 43.0142 133.154 43.1847 132.657 43.3409C132.174 43.483 131.627 43.6179 131.017 43.7457C130.406 43.8594 129.795 43.9659 129.184 44.0653C128.573 44.1506 128.019 44.2287 127.522 44.2997C126.457 44.456 125.527 44.7045 124.731 45.0455C123.936 45.3864 123.318 45.848 122.877 46.4304C122.437 46.9986 122.217 47.7088 122.217 48.5611C122.217 49.7969 122.664 50.7415 123.559 51.3949C124.468 52.0341 125.619 52.3537 127.011 52.3537ZM149.884 58V25.2727H158.961V58H149.884ZM154.443 21.054C153.094 21.054 151.936 20.6065 150.97 19.7116C150.019 18.8026 149.543 17.7159 149.543 16.4517C149.543 15.2017 150.019 14.1293 150.97 13.2344C151.936 12.3253 153.094 11.8707 154.443 11.8707C155.793 11.8707 156.943 12.3253 157.895 13.2344C158.861 14.1293 159.344 15.2017 159.344 16.4517C159.344 17.7159 158.861 18.8026 157.895 19.7116C156.943 20.6065 155.793 21.054 154.443 21.054ZM166.231 58V25.2727H175.031V30.983H175.372C175.969 28.9517 176.97 27.4176 178.376 26.3807C179.783 25.3295 181.402 24.804 183.234 24.804C183.689 24.804 184.179 24.8324 184.704 24.8892C185.23 24.946 185.692 25.0241 186.089 25.1236V33.1776C185.663 33.0497 185.074 32.9361 184.321 32.8366C183.568 32.7372 182.879 32.6875 182.254 32.6875C180.919 32.6875 179.726 32.9787 178.675 33.5611C177.638 34.1293 176.814 34.9247 176.203 35.9474C175.606 36.9702 175.308 38.1491 175.308 39.4844V58H166.231ZM204.174 58.6392C200.807 58.6392 197.909 57.9574 195.48 56.5938C193.066 55.2159 191.205 53.2699 189.898 50.7557C188.591 48.2273 187.938 45.2372 187.938 41.7855C187.938 38.419 188.591 35.4645 189.898 32.9219C191.205 30.3793 193.044 28.3977 195.416 26.9773C197.803 25.5568 200.601 24.8466 203.811 24.8466C205.97 24.8466 207.98 25.1946 209.841 25.8906C211.716 26.5724 213.35 27.6023 214.742 28.9801C216.148 30.358 217.242 32.0909 218.023 34.179C218.804 36.2528 219.195 38.6818 219.195 41.4659V43.9588H191.56V38.3338H210.651C210.651 37.027 210.367 35.8693 209.799 34.8608C209.23 33.8523 208.442 33.0639 207.434 32.4957C206.439 31.9134 205.282 31.6222 203.961 31.6222C202.583 31.6222 201.361 31.9418 200.296 32.581C199.245 33.206 198.421 34.0511 197.824 35.1165C197.228 36.1676 196.922 37.3395 196.908 38.6321V43.9801C196.908 45.5994 197.206 46.9986 197.803 48.1776C198.414 49.3565 199.273 50.2656 200.381 50.9048C201.489 51.544 202.803 51.8636 204.323 51.8636C205.331 51.8636 206.255 51.7216 207.093 51.4375C207.931 51.1534 208.648 50.7273 209.245 50.1591C209.841 49.5909 210.296 48.8949 210.608 48.071L219.003 48.625C218.577 50.642 217.703 52.4034 216.382 53.9091C215.076 55.4006 213.385 56.5653 211.311 57.4034C209.252 58.2273 206.872 58.6392 204.174 58.6392ZM239.905 58.6392C236.553 58.6392 233.669 57.929 231.255 56.5085C228.854 55.0739 227.007 53.0852 225.715 50.5426C224.436 48 223.797 45.0739 223.797 41.7642C223.797 38.4119 224.443 35.4716 225.736 32.9432C227.043 30.4006 228.897 28.419 231.297 26.9986C233.698 25.5639 236.553 24.8466 239.863 24.8466C242.718 24.8466 245.218 25.3651 247.363 26.402C249.507 27.4389 251.205 28.8949 252.455 30.7699C253.705 32.6449 254.394 34.8466 254.522 37.375H245.956C245.715 35.7415 245.076 34.4276 244.039 33.4332C243.016 32.4247 241.674 31.9205 240.012 31.9205C238.605 31.9205 237.377 32.304 236.326 33.071C235.289 33.8239 234.479 34.9247 233.897 36.3736C233.314 37.8224 233.023 39.5767 233.023 41.6364C233.023 43.7244 233.307 45.5 233.875 46.9631C234.458 48.4261 235.274 49.5412 236.326 50.3082C237.377 51.0753 238.605 51.4588 240.012 51.4588C241.049 51.4588 241.979 51.2457 242.803 50.8196C243.641 50.3935 244.33 49.7756 244.87 48.9659C245.424 48.142 245.786 47.1548 245.956 46.0043H254.522C254.38 48.5043 253.698 50.706 252.476 52.6094C251.269 54.4986 249.6 55.9759 247.469 57.0412C245.338 58.1065 242.817 58.6392 239.905 58.6392Z" fill="white"/>
<rect x="3" y="6.83691" width="307" height="61.5569" rx="9" stroke="white" stroke-width="6"/>
</svg>
